<svg width="375" height="398" fill="none" xmlns="http://www.w3.org/2000/svg">
  <defs>
    <linearGradient id="paint0_linear" x1="236.704" y1="256.413" x2="175.087" y2="12.759" gradientUnits="userSpaceOnUse">
      <stop stop-color="#13747D"/>
      <stop offset="1" stop-color="#0F1F2E"/>
    </linearGradient>
    <linearGradient id="paint1_linear" x1="188.027" y1="321.03" x2="188.027" y2="203.602" gradientUnits="userSpaceOnUse">
      <stop stop-color="#0A111F"/>
      <stop offset="1" stop-color="#13747D"/>
    </linearGradient>
  </defs>
  <path d="M187 .118c-34.217 0-62 23.887-62 53.415v121.642h123.943V53.533C248.943 24.005 221.217.118 187 .118z" fill="url(#paint0_linear)"/>
  <path d="M187 .118c-.911 0-1.879 0-2.79.049 32.964 1.226 59.268 24.623 59.268 53.366v121.642H249V53.533C248.943 24.005 221.217.118 187 .118z" fill="#1EA5AF"/>
  <path d="M176.069 37.935c-5.58 3.286-13.152 2.109-17.023-2.698-3.814-4.807-2.448-11.33 3.131-14.666.911-.54 1.879-.932 2.847-1.275-3.188-.147-6.49.589-9.337 2.256-6.775 4.022-8.483 12.066-3.815 17.903 4.669 5.837 14.006 7.309 20.781 3.287 2.847-1.668 4.782-4.071 5.75-6.72-.626.736-1.423 1.373-2.334 1.913zM198.671 36.316c0 .195-.09.383-.25.52a.927.927 0 01-.604.216.931.931 0 01-.604-.215.689.689 0 01-.25-.52c0-.196.09-.383.25-.521a.931.931 0 01.604-.215c.227 0 .444.077.604.215.16.138.25.325.25.52zM230.269 87.671c0 .195-.09.382-.25.52a.927.927 0 01-.604.216.93.93 0 01-.604-.216.689.689 0 01-.25-.52c0-.195.09-.382.25-.52a.93.93 0 01.604-.216c.227 0 .444.078.604.216.16.138.25.325.25.52zM183.47 74.82c0 .195-.09.382-.25.52a.927.927 0 01-.604.216.93.93 0 01-.604-.216.689.689 0 01-.25-.52c0-.195.09-.382.25-.52a.93.93 0 01.604-.216c.227 0 .444.078.604.216.16.138.25.325.25.52zM135.533 67.708c0 .195-.09.382-.251.52a.927.927 0 01-.603.216.927.927 0 01-.604-.216.688.688 0 01-.25-.52c0-.195.09-.382.25-.52a.928.928 0 01.604-.216c.226 0 .443.078.603.216a.687.687 0 01.251.52zM212.336 45.98c0 .065-.03.127-.084.173a.308.308 0 01-.201.072.311.311 0 01-.202-.072.231.231 0 01-.083-.173c0-.066.03-.128.083-.174a.311.311 0 01.202-.072c.075 0 .148.026.201.072a.229.229 0 01.084.174zM184.496 19.346c0 .065-.03.127-.084.173a.308.308 0 01-.201.072.311.311 0 01-.202-.072.231.231 0 01-.083-.173.23.23 0 01.083-.174.311.311 0 01.202-.072c.075 0 .148.026.201.072a.228.228 0 01.084.174zM195.028 56.917c0 .066-.03.128-.083.174a.311.311 0 01-.202.072.308.308 0 01-.201-.072.229.229 0 01-.084-.174c0-.065.03-.127.084-.173a.308.308 0 01.201-.072c.076 0 .148.026.202.072a.231.231 0 01.083.173zM151.532 99.59c0 .066-.03.128-.084.174a.308.308 0 01-.201.072.31.31 0 01-.202-.072.231.231 0 01-.083-.173.23.23 0 01.083-.174.31.31 0 01.202-.072c.075 0 .148.026.201.072a.228.228 0 01.084.174zM223.153 46.225c0 .065-.03.127-.083.173a.312.312 0 01-.202.072.309.309 0 01-.201-.072.229.229 0 01-.084-.173c0-.066.03-.128.084-.174a.309.309 0 01.201-.072c.076 0 .148.026.202.072a.231.231 0 01.083.174zM196.395 99.836c0 .065-.03.127-.084.173a.304.304 0 01-.201.072.306.306 0 01-.202-.072.23.23 0 01-.083-.173c0-.065.03-.128.083-.174a.311.311 0 01.202-.072c.075 0 .148.026.201.072a.229.229 0 01.084.174zM217.745 121.663a.23.23 0 01-.084.174.309.309 0 01-.201.072.31.31 0 01-.202-.072.234.234 0 01-.084-.174c0-.065.031-.128.084-.174a.31.31 0 01.202-.072c.075 0 .148.026.201.072a.23.23 0 01.084.174zM169.408 80.216a.23.23 0 01-.083.174.311.311 0 01-.202.072.308.308 0 01-.201-.072.228.228 0 01-.084-.174c0-.065.03-.128.084-.174a.308.308 0 01.201-.072c.076 0 .148.026.202.072a.231.231 0 01.083.174zM161.666 57.163c0 .065-.03.127-.084.174a.308.308 0 01-.201.071.311.311 0 01-.202-.072.231.231 0 01-.083-.173c0-.065.03-.128.083-.174a.311.311 0 01.202-.072c.075 0 .148.026.201.072a.229.229 0 01.084.174z" fill="#F0F7F8"/>
  <path d="M247.751 165H124.192L-24 426h420L247.751 165z" fill="#FBFCFA"/>
  <path d="M242.596 263.143a431.729 431.729 0 01-7.393-11.074l-2.348-3.734a4.43 4.43 0 00-1.174-1.216.516.516 0 00-.217-.217s8.653-3.865.956-8.555c-7.088-4.3-34.483-5.038-34.483-5.038l-30.005-.564-.348.26c-4.261 0-16.35-.043-19.829 0h-.652c.565.13.956.217 1.087.217 1 .131 2.348 5.819 2.348 5.819l-16.003 7.383c-1.826.868-2.652 1.78-2.522 2.605.174 1.347 2.436 2.042 2.436 2.042 1.869 1.519 4.783 3.039 5.566 4.038 1.348 1.781-.305 11.204 6.174 19.151 6.088 7.513 21.047 9.293 25.613 9.641-1.652 2.779-1.957 5.906-1.957 5.906l-.695.26c-2.262 3.779-.653 7.122-.653 7.122l-1.087 11.899c-.087.738.392 1.477 1.348 2.128.218.13.435.304.653.434.217.131.478.261.782.391h.044c.565.261 1.174.521 1.87.738.043 0 .043 0 .087.044.695.217 1.435.434 2.261.651.043 0 .087.044.13.044.783.217 1.653.391 2.566.564.087 0 .13.044.217.044.435.087.913.173 1.392.217h.13c.435.087.913.13 1.348.174.087 0 .174 0 .218.043.478.043 1 .13 1.478.174.087 0 .174 0 .261.043.478.044.913.087 1.392.13h.261l1.565.131h.348c.478.043 1 .043 1.522.087h.174c.565.043 1.087.043 1.652.043H193.371c.565 0 1.13-.043 1.652-.043h.174c.522-.044 1-.044 1.479-.087h.348l1.565-.131h.217c.479-.043.914-.086 1.392-.13.087 0 .174 0 .261-.043.522-.044 1-.131 1.478-.174.087 0 .174 0 .218-.043.435-.044.913-.131 1.348-.174h.13c.479-.087.913-.174 1.348-.217.087 0 .131-.044.218-.044a31.195 31.195 0 002.522-.564c.043 0 .087-.044.13-.044a46.02 46.02 0 002.175-.651c.043 0 .043 0 .087-.044a13.655 13.655 0 001.782-.738h.044c.261-.13.522-.26.739-.391.218-.13.435-.26.609-.434.87-.695 1.305-1.39 1.174-2.128l-2.044-11.377c1.479-.695 1.348-2.085 1.261-2.649 5.045 2.041 5.132-1.52 3.523-4.951-1.566-3.301-5.479-3.214-5.479-3.214l-.435-.781c27.7-.087 36.571-15.46 31.309-22.973zm-72.838 31.093c.305.999.609 1.694.609 1.694-.304-.391-.522-.999-.609-1.694z" fill="url(#paint1_linear)"/>
  <path d="M165.019 240.344s-9.828 1.564-12.002 1.694c-2.175.13-12.524-2.085-16.525-3.909-4-1.823-1.739 7.817-.652 10.206 1.087 2.388 10.002 3.039 14.263 3.17 4.262.13 21.308 0 21.308 0l-3.914-11.204-2.478.043z" fill="#F7FAF7"/>
  <path d="M223.941 210.597s4.609 5.385 3.74 7.556c0 0 9.349 8.468 4.348 19.542-5.001 11.074-31.918 13.028-31.918 13.028l-29.918 1.52-5.914-13.679 22.134-15.2 7.741-6.904 11.436-6.905 17.307-2.997 1.044 4.039z" fill="#111010"/>
  <path d="M139.971 239.389s-6.653-3.344-5.523-10.292c1.175-6.948 8.393-10.857 11.002-10.987 2.609-.13 12.002-4.126 17.655-3.431 5.653.695 14.698 4.126 14.698 4.126l.739 8.728 10.306-2.909s6.219 4.907 5.219 5.341c-1.001.435-23.874 6.818-23.874 6.818s-8.305 6.21-11.654 6.514c-3.348.304-18.568-3.908-18.568-3.908z" fill="#111010"/>
  <path d="M178.673 159.05s-13.046.955-19.438 12.507c-6.392 11.551-7.523 27.185-9.132 30.355-1.609 3.17-8.827 9.119-8.262 14.027l15.959-1.303 19.742 2.475 14.35-3.474 20.264-2.171 16.525-.869s.869-10.857 2.174-22.495c1.305-11.638-9.436-31.918-27.83-31.484l-24.352 2.432z" fill="#F0B022"/>
  <path d="M175.498 218.11s3.175-4.777 7.523-6.21c4.349-1.433 15.525-7.252 16.96-11.291 0 0 2.739 4.777 3.609 5.949l-24.352 15.33-3.74-3.778z" fill="#1CA4AE"/>
  <path d="M199.981 200.609l10.305 1.954.957 3.474-7.61.521-3.652-5.949z" fill="#155F69"/>
  <path d="M168.236 212.682c-7.044.086-12.393.304-17.176-1.433l-7.175 1.172 31.613 5.732.261-.347c0-.044-.478-5.168-7.523-5.124z" fill="#1CA4AE"/>
  <path d="M143.885 212.421v1.65l31.309 5.776.304-1.737-31.613-5.689z" fill="#155F69"/>
  <path d="M211.243 206.037l-23.569 15.851h-8.392l24.351-15.33 7.61-.521z" fill="#111010"/>
  <path d="M144.233 209.555h8.088c.957 0 1.522 1.129.913 1.867-.565.738-1.435 1.303-2.566.956 0 0 3.479.347 4.784 3.734 1.304 3.387 1.174 4.386.652 4.907-.522.522-6.436 4.126-10.219 1.303-3.783-2.823-5.131-5.949-4.479-8.685.696-2.736 2.827-4.082 2.827-4.082z" fill="#F7FAF7"/>
  <path d="M207.112 201.955l2.74-7.426 1.391-15.937-7.131 23.363h3zM162.453 212.421l6.827-11.812-1.609-18.109 4.653 20.28 2.305 5.081-3.479 5.168h-8.697v-.608z" fill="#111010"/>
  <path d="M176.846 152.319s.044 6.514 2.349 10.031c2.304 3.518 7.218 9.38 11.132 9.163 3.914-.217 10.219-3.691 13.045-13.636l.435-2.214s2.566.13 3.088-3.648c.521-3.778 0-7.426-2.827-5.342-2.826 2.128-3.522.348-3.522.348l-7.654-3.518h-6.218l-7.958.999-1.217 1.259c.043.044-1.218 3.865-.653 6.558z" fill="#F7FAF7"/>
  <path d="M203.068 133.298c0 1.405-1.402 2.753-3.897 3.746-2.496.994-5.88 1.552-9.409 1.552-1.748 0-3.478-.137-5.093-.403-1.614-.266-3.081-.657-4.317-1.149-1.235-.492-2.215-1.076-2.884-1.719-.669-.642-1.013-1.331-1.013-2.027 0-.696.344-1.385 1.013-2.027.669-.643 1.649-1.227 2.884-1.719 1.236-.492 2.703-.882 4.317-1.149a31.605 31.605 0 015.093-.403c3.529 0 6.913.558 9.409 1.552 2.495.993 3.897 2.341 3.897 3.746z" fill="#111010"/>
  <path d="M189.762 129.086c5 0 9.479.912 12.436 2.345-1.913-1.998-6.74-3.431-12.436-3.431-5.697 0-10.524 1.433-12.437 3.431 2.957-1.433 7.392-2.345 12.437-2.345z" fill="#1CA4AE"/>
  <path d="M176.846 152.319s-.13-4.864.696-6.558l-1.087-1.259s-1.174 3.474 0 7.556l.391.261z" fill="#111010"/>
  <path d="M176.455 133.298v11.204s1.087 3.778 13.307 3.778c12.219 0 13.306-4.256 13.306-4.256v-10.726h-26.613z" fill="#111010"/>
  <path d="M196.11 147.802s5.132.304 6.349 5.385h1s-.435-3.647.653-6.123c0 0 .174-2.084-1.044-2.996l-6.958 3.734z" fill="#111010"/>
  <path d="M211.243 206.037l-23.917 11.421 1.87 8.251 33.745-3.821s4.957-.869 5.392-6.775l.609-7.425-17.699-1.651z" fill="#F0B022"/>
  <path d="M189.762 225.449c3.13-5.342-1.479-8.381-1.479-8.381-.348.086-.696.217-.957.434-1.217 1.172-8.175 0-8.566 1.39-.131.521-.131.955 0 1.389-.696-.651-1.261-1.65-1.218-3.127.131-3.17-6.74-1.823-7.044-.998-.305.825-.74 1.433.565 4.82 1.305 3.387 3.044 7.383 5.218 8.034 2.174.651 6.001-.999 7.958-2.302 1.957-1.302 4.914-.955 4.914-.955.217-.13.435-.217.609-.304z" fill="#F7FAF7"/>

</svg>
