<?xml version="1.0" encoding="utf-8"?>
<!-- Generator: Adobe Illustrator 24.1.0, SVG Export Plug-In . SVG Version: 6.00 Build 0)  -->
<svg version="1.1" id="Calque_1" xmlns="http://www.w3.org/2000/svg" xmlns:xlink="http://www.w3.org/1999/xlink" x="0px" y="0px"
	 viewBox="0 0 1200 628" style="enable-background:new 0 0 1200 628;" xml:space="preserve">
<style type="text/css">
	.st0{fill:#FFFFFF;}
</style>
<g>
	<path d="M428.37,277.5c-27.57,0-50-22.43-50-50v-2c0-27.57,22.43-50,50-50h15.26c27.57,0,50,22.43,50,50v2c0,27.57-22.43,50-50,50
		H428.37z"/>
	<path d="M443.63,176c27.29,0,49.5,22.21,49.5,49.5v2c0,27.29-22.21,49.5-49.5,49.5h-15.26c-27.29,0-49.5-22.21-49.5-49.5v-2
		c0-27.29,22.21-49.5,49.5-49.5H443.63 M443.63,175h-15.26c-27.89,0-50.5,22.61-50.5,50.5v2c0,27.89,22.61,50.5,50.5,50.5h15.26
		c27.89,0,50.5-22.61,50.5-50.5v-2C494.13,197.61,471.52,175,443.63,175L443.63,175z"/>
</g>
<path class="st0" d="M401.38,208.06c-0.81,0-1.5-0.31-2.07-0.92c-0.59-0.61-0.89-1.36-0.89-2.23c0-0.9,0.3-1.65,0.89-2.27
	c0.57-0.64,1.26-0.95,2.07-0.95c0.83,0,1.53,0.32,2.1,0.95c0.59,0.61,0.89,1.37,0.89,2.27c0,0.88-0.3,1.62-0.89,2.23
	C402.91,207.75,402.21,208.06,401.38,208.06z M401.41,206.51c0.39,0,0.73-0.15,1.02-0.46c0.28-0.33,0.43-0.71,0.43-1.15
	c0-0.46-0.14-0.84-0.43-1.15c-0.28-0.33-0.62-0.49-1.02-0.49c-0.42,0-0.77,0.16-1.05,0.49c-0.28,0.31-0.43,0.69-0.43,1.15
	c0,0.44,0.14,0.82,0.43,1.15C400.64,206.36,400.99,206.51,401.41,206.51z M407.51,234.09h-4.54v0.2c0,2.59-0.45,4.56-1.35,5.92
	c-0.9,1.38-2.26,2.07-4.08,2.07c-0.5,0-1.05-0.03-1.64-0.1l-0.79-0.07v-2.76c0.72,0.07,1.31,0.1,1.77,0.1
	c0.99,0,1.73-0.39,2.23-1.18c0.5-0.79,0.76-1.9,0.76-3.32v-17.25h3.09v13.61h4.54V234.09z M420.42,231.29v2.79h-12.92v-2.79h4.9
	v-13.64h3.12v13.64H420.42z M410.33,236.71h2.79v3.15h-2.79V236.71z M414.74,236.71h2.76v3.15h-2.76V236.71z M448.64,231.29v2.79
	h-9.33c-1.36,0-2.57-0.44-3.65-1.31c-0.81,0.88-1.87,1.31-3.19,1.31h-12.06v-2.79h5.23v-12h3.12v12h2.69c0.96,0,1.67-0.41,2.1-1.22
	c0.46-0.81,0.69-1.83,0.69-3.06v-7.72h3.12v7.69c0,1.25-0.14,2.37-0.43,3.35c0.31,0.24,0.68,0.46,1.12,0.66
	c0.44,0.2,0.88,0.3,1.31,0.3h3.15v-6.34c0-1.53-0.18-3.93-0.53-7.2l2.63-0.1c0.26,1.29,0.49,2.65,0.69,4.08
	c0.22,1.4,0.33,2.48,0.33,3.22v6.34H448.64z M469.06,231.29v2.79h-20.41v-2.79h4.27c-0.5-1.25-0.76-3-0.76-5.26
	c0-2.17,0.26-3.85,0.79-5.03c0.53-1.2,1.36-2.06,2.5-2.56c1.16-0.5,2.77-0.76,4.83-0.76c1.71,0,3.25,0.08,4.63,0.23l1.15,0.13v13.24
	H469.06z M455.29,226.26c0,1.42,0.1,2.51,0.3,3.25c0.2,0.72,0.45,1.31,0.76,1.77h6.61v-10.75c-1.36-0.11-2.31-0.16-2.86-0.16
	c-1.31,0-2.31,0.19-2.99,0.56c-0.68,0.37-1.15,0.97-1.41,1.81S455.29,224.75,455.29,226.26z M457.92,211.38h2.99v3.22h-2.99V211.38z
	 M477.08,217.65v16.43h-8.02v-2.79h4.9v-13.64H477.08z M471.95,211.41h2.79v3.19h-2.79V211.41z M476.36,211.41h2.76v3.19h-2.76
	V211.41z"/>
</svg>
