<svg width="329" height="406" viewBox="0 0 329 406" fill="none" xmlns="http://www.w3.org/2000/svg">
<path d="M207.916 19.2569C192.773 23.2688 185.642 25.1945 169.858 29.6075C154.715 33.7798 118.42 47.0992 103.758 53.7589C101.835 54.6415 100.072 55.3636 99.7515 55.3636C98.7099 55.3636 69.4655 70.2075 62.0943 74.3799C54.643 78.7126 54.002 79.2743 52.7201 82.8047C51.999 84.8909 50.8773 90.5878 50.3965 95.5625L49.4351 104.629L52.2393 107.036C53.7616 108.4 57.3671 111.289 60.1714 113.375C68.5842 119.714 81.0831 129.262 88.2941 134.718C91.8996 137.607 97.2677 141.699 100.152 143.945C103.036 146.112 107.283 149.482 109.606 151.408C112.01 153.333 114.494 155.259 115.215 155.66C116.337 156.302 115.535 157.506 109.687 163.122C87.9736 183.823 61.1328 205.487 49.5953 211.585C45.8296 213.511 44.3874 213.832 38.2982 213.832C30.286 213.832 27.8823 212.628 25.3184 207.333C22.1937 201.074 22.8347 191.927 27.642 173.713C28.2028 171.467 28.9239 168.257 29.1643 166.492C29.645 163.443 29.4848 163.604 26.7606 168.899C25.1582 171.948 22.7545 177.404 21.3925 180.935C19.1491 186.872 18.9888 188.156 18.9087 198.186C18.8286 208.777 18.9087 209.098 21.2322 213.351C23.9564 218.325 29.004 222.979 35.4138 226.509C37.9777 227.954 40.0608 229.398 40.0608 229.799C40.0608 230.2 38.859 233.651 37.3367 237.502C32.93 248.575 31.0071 257 30.927 265.184C30.8468 275.294 33.0101 280.991 39.7403 287.811C45.6694 293.909 48.6339 295.273 55.9249 295.273C61.3732 295.273 61.4533 295.273 67.7829 290.459C71.2282 287.811 74.3529 285.644 74.5933 285.644C75.3144 285.644 76.1156 290.138 76.1156 294.31C76.1156 299.846 78.4391 311.16 80.6825 316.536C84.8489 326.645 92.1399 333.546 102.396 337.076C110.167 339.804 129.397 339.965 142.296 337.317L144.78 336.836L145.261 342.051C145.982 349.994 149.267 357.296 154.635 362.672C160.243 368.449 163.769 370.134 171.06 370.214C179.713 370.294 183.959 367.326 198.942 350.396C212.002 335.552 217.771 329.213 220.335 326.726C223.78 323.356 232.273 316.937 233.234 316.937C233.635 316.937 233.955 323.035 233.955 330.497C233.955 338.039 234.276 344.298 234.676 344.538C236.279 345.581 239.324 331.941 240.125 319.986L240.605 312.042L244.692 309.314C254.707 302.735 266.565 297.6 278.022 294.952C285.954 293.026 286.195 293.106 289.239 298.161C295.889 309.154 303.501 313.647 313.676 312.604C326.897 311.24 335.95 305.142 340.197 294.551C343.722 285.564 344.283 274.652 342.2 256.358C339.396 232.206 336.752 210.141 334.989 195.779C334.027 188.477 332.585 176.04 331.704 168.097C330.823 160.153 329.781 151.327 329.38 148.439C328.9 145.55 328.018 137.045 327.297 129.583C326.576 122.041 325.695 112.653 325.294 108.721C323.852 94.6798 323.531 89.0633 324.172 89.0633C324.493 89.0633 325.615 89.8656 326.656 90.8285C327.698 91.7913 328.499 92.1925 328.499 91.7111C328.499 90.989 321.528 73.9787 317.602 65.2328C316.961 63.8688 316.481 62.1838 316.481 61.4617C316.481 58.8138 314.958 60.3383 313.436 64.4305L311.834 68.683L313.757 85.0514C314.798 94.1182 316.32 107.117 317.202 113.937C318.083 120.757 319.766 133.755 320.887 142.822C322.009 151.889 323.692 164.887 324.573 171.708C326.336 185.268 328.9 206.129 332.104 232.287C333.226 241.514 334.829 256.518 335.71 265.585C336.591 274.652 337.473 283.398 337.793 285.002C338.194 287.811 338.033 288.051 335.149 289.496C325.534 294.47 307.908 296.797 300.857 294.149C298.854 293.347 296.53 291.823 295.649 290.619L293.967 288.533L297.091 285.323C308.308 273.448 312.395 260.289 308.949 247.13C302.94 224.423 284.192 223.781 278.503 246.007C276.82 252.506 276.901 257.481 278.824 269.196C279.705 274.491 280.426 279.225 280.426 279.787C280.426 280.268 277.782 281.472 274.657 282.435C262.479 285.965 253.425 289.175 248.057 291.742C245.092 293.267 242.288 294.47 241.887 294.47C241.407 294.47 241.327 288.372 241.647 279.386C241.968 270.881 241.727 257.962 241.246 249.618C240.285 233.57 240.285 233.49 244.451 233.49C248.297 233.49 259.194 227.392 263.12 222.979C268.648 216.801 270.411 211.585 270.331 201.395C270.251 192.73 268.969 182.058 260.396 118.35C256.069 86.4957 253.024 58.4127 253.345 53.5182L253.585 49.8273L257.03 51.3518C258.873 52.1541 260.396 52.7158 260.396 52.4751C260.396 52.2344 256.95 44.9328 252.704 36.2672C244.211 19.0162 244.051 18.936 241.968 27.6016C241.086 31.5332 241.166 33.2984 242.689 43.4886C244.852 57.1289 249.178 88.5818 253.585 121.96C254.627 130.145 256.47 143.865 257.591 152.451C261.998 185.909 262.879 193.291 263.681 201.315C264.482 209.258 264.402 209.66 262.799 211.425C261.838 212.468 258.312 214.634 255.027 216.319C250.14 218.807 248.137 219.368 244.371 219.449C241.727 219.449 239.243 219.047 238.843 218.646C237.881 217.683 237.16 212.628 234.757 190.964C233.875 183.262 232.994 176.04 232.754 174.917C231.472 168.498 225.062 112.974 225.543 112.492C225.703 112.332 227.145 113.134 228.667 114.338C230.27 115.542 231.552 116.264 231.552 115.943C231.552 114.9 217.691 84.249 217.21 84.249C216.97 84.249 216.008 85.613 215.127 87.298C213.685 89.7854 213.524 91.0692 214.005 95.081C214.326 97.7289 215.127 105.672 215.848 112.733C216.569 119.794 217.691 129.342 218.332 133.996C223.139 168.017 228.347 215.276 227.385 216.319C226.825 216.881 220.896 213.912 217.13 211.104C214.566 209.259 210.64 205.889 203.509 199.389C201.987 198.025 198.221 194.736 195.096 192.168C188.126 186.23 185.642 184.064 181.556 180.453C179.713 178.929 172.342 172.831 165.211 166.893C150.469 154.777 150.549 155.018 160.003 153.253C171.941 151.006 185.882 154.537 195.657 162.32C197.26 163.604 198.942 164.406 199.423 164.085C199.984 163.844 200.304 160.715 200.304 156.462V149.321L194.856 144.989C183.799 136.162 178.191 127.978 173.944 114.739C172.021 108.882 169.858 97.3277 169.858 93.2356C169.858 90.668 169.938 90.5878 172.662 91.1494L175.467 91.6308L171.22 82.564C164.249 67.8806 164.009 67.319 163.128 67.6399C162.647 67.8004 161.605 69.7261 160.804 71.8925C159.683 75.102 159.442 77.6696 159.763 86.2549C160.083 95.081 160.564 98.3708 163.048 107.518C172.021 140.816 171.46 137.607 168.256 138.329C166.813 138.57 164.089 138.81 162.246 138.81C157.199 138.81 147.825 140.816 141.415 143.223C135.085 145.63 134.765 145.55 127.954 140.576C125.631 138.891 120.904 135.521 117.378 133.033C113.853 130.626 109.446 127.577 107.684 126.293C105.841 125.009 102.075 122.362 99.2708 120.436C96.4665 118.43 92.5406 115.702 90.5375 114.338C88.5345 112.974 84.0477 109.845 80.5223 107.357C76.9969 104.95 72.5101 101.821 70.5071 100.377C68.504 99.0127 64.498 96.1241 61.5335 94.1182C58.4888 92.1123 56.0852 90.1866 56.0852 89.7854C56.0852 88.662 60.2515 86.1747 71.7089 80.3976C83.1663 74.6206 100.713 66.5968 101.915 66.5968C102.235 66.5968 104.078 65.8747 106.001 65.0723C112.01 62.3443 142.937 51.2715 158.24 46.2968C163.128 44.6921 170.659 42.1245 175.066 40.5198C179.473 38.915 186.684 36.7486 191.01 35.6253C199.183 33.5392 213.524 32.2553 217.37 33.2182C219.774 33.7798 221.937 37.3103 221.937 40.5198C221.937 42.6862 219.373 47.1794 216.168 50.5494C212.483 54.4008 200.625 67.8806 197.18 72.053C193.895 76.0648 187.485 87.619 187.485 89.4644C187.565 89.8656 188.286 89.3842 189.167 88.2609C191.251 85.7735 201.025 74.8613 202.788 73.0961C206.153 69.6458 214.005 59.8569 218.171 53.9996C224.982 44.2909 227.866 37.7115 228.187 30.8111C228.587 24.2316 227.786 22.3059 224.1 20.0593C221.376 18.3743 212.803 17.9731 207.916 19.2569ZM134.444 171.868C143.979 179.731 158.721 194.816 162.807 200.994C167.054 207.413 170.659 214.474 170.659 216.159C170.659 218.085 163.528 223.701 158.721 225.547C156.237 226.429 151.029 227.954 147.023 228.836C138.13 230.762 133.803 232.126 120.583 237.422C109.526 241.835 97.1876 247.772 91.499 251.383C88.0537 253.63 84.0477 257.481 70.5872 271.523C61.5335 280.991 55.7647 284.922 50.2363 285.484C45.3489 285.965 43.0253 284.762 39.9006 280.188C33.7312 271.202 33.8915 257.962 40.4614 241.113C44.0669 231.885 45.8296 228.997 48.3935 228.355C53.0406 227.232 70.5872 215.838 77.3174 209.66C85.9706 201.796 100.553 188.397 103.758 185.348C112.25 177.404 125.791 166.974 127.634 166.893C128.034 166.893 131.079 169.14 134.444 171.868ZM164.81 181.496C171.06 186.15 178.351 192.489 187.084 200.753C190.129 203.642 193.814 207.012 195.096 208.215C196.458 209.419 199.663 212.468 202.307 215.036C209.118 221.455 220.014 229.639 224.741 231.725C230.751 234.453 230.991 234.613 231.632 237.021C232.834 241.434 233.955 262.696 233.955 280.75V299.124L231.071 300.889C222.658 306.105 210.88 317.819 201.746 329.855C190.369 345.02 184.2 351.038 175.066 355.691C169.938 358.259 165.291 358.981 161.205 357.938C156.878 356.734 153.914 352.161 151.51 343.014C149.427 335.07 149.187 335.632 155.997 332.984C168.496 328.25 184.921 318.301 198.301 307.469C210.96 297.198 216.008 289.576 216.889 279.626C217.45 272.164 216.008 266.708 209.919 253.71C207.275 248.093 205.112 242.798 205.112 242.076C205.112 240.551 207.916 240.15 208.717 241.514C208.957 241.915 210.079 242.316 211.201 242.316C212.723 242.316 213.044 241.995 212.563 241.193C211.121 238.706 195.978 222.257 195.096 222.257C194.055 222.257 191.491 229.799 191.491 232.928C191.491 235.095 192.532 237.662 198.141 249.538C200.064 253.71 202.468 258.925 203.509 261.172C204.471 263.338 205.913 266.628 206.714 268.393C210.319 276.257 211.521 279.546 211.521 281.151C211.521 285.002 194.696 297.198 180.274 303.858C168.897 309.154 153.593 314.851 152.231 314.369C151.831 314.209 153.113 309.394 155.035 303.698C157.039 297.921 158.561 292.946 158.401 292.625C158.32 292.224 155.356 297.68 151.831 304.66L145.581 317.418L139.492 319.183C121.785 324.238 107.203 323.115 94.9442 315.733C86.5314 310.678 83.0862 305.543 81.2434 295.353C79.8813 287.409 79.8813 282.114 81.2434 279.306C83.4067 275.213 99.431 261.573 102.155 261.573C102.556 261.573 103.437 261.092 104.078 260.45C105.6 259.166 117.298 254.432 126.192 251.543C129.717 250.42 133.323 249.136 134.204 248.815C135.085 248.414 138.691 247.13 142.216 245.927C154.555 241.755 166.493 234.934 170.259 229.879C174.505 224.263 175.787 214.795 173.463 205.889C171.621 198.908 167.775 191.847 161.686 183.984C153.914 174.034 154.395 173.713 164.81 181.496ZM297.973 250.179C301.258 252.908 303.421 256.679 304.142 261.413C304.623 264.702 304.543 264.943 300.937 268.393C296.29 272.887 289.72 276.417 288.598 274.973C288.118 274.411 286.836 271.843 285.634 269.196C283.791 265.104 283.39 263.178 283.31 256.759C283.23 249.457 283.31 249.136 285.233 248.093C288.358 246.489 294.608 247.451 297.973 250.179Z" fill="#F0B022" fill-opacity="0.45"/>
<path d="M110.648 200.753C107.684 205.407 106.562 208.617 107.283 210.061C108.405 212.147 114.254 217.282 116.657 218.406C118.58 219.288 118.981 219.047 122.506 215.036L126.352 210.703L131.72 215.276C134.685 217.764 137.649 219.85 138.21 219.85C139.652 219.85 144.94 212.789 145.02 210.863C145.02 209.259 135.005 198.988 133.403 198.988C132.842 198.988 130.999 200.753 129.316 203C127.634 205.166 125.791 207.012 125.15 207.012C124.589 207.012 121.865 205.166 119.141 203C113.613 198.507 112.25 198.186 110.648 200.753Z" fill="#F0B022" fill-opacity="0.45"/>
<path d="M148.065 265.745C144.059 271.041 143.899 271.843 146.142 274.812C148.786 278.262 154.875 283.237 156.398 283.237C157.599 283.237 163.448 275.454 163.448 273.849C163.448 272.485 152.952 263.178 151.43 263.178C150.629 263.178 149.106 264.381 148.065 265.745Z" fill="#F0B022" fill-opacity="0.45"/>
<path d="M278.423 37.4708C275.939 42.6862 275.779 40.2791 280.025 67.3992C282.749 84.4095 284.833 99.7348 286.756 116.344C290.121 144.427 292.524 163.122 294.848 178.929C295.729 184.866 296.45 190.082 296.45 190.483C296.45 192.569 297.973 189.199 299.174 184.385C300.937 176.923 301.578 164.005 300.536 154.858C298.774 139.372 296.45 120.596 295.649 115.542C293.646 103.025 289.079 64.1095 289.48 63.6281C289.72 63.4676 290.842 63.8688 291.963 64.6712C293.165 65.3933 294.287 65.7945 294.527 65.5538C294.768 65.3131 294.047 62.9862 293.005 60.4186C291.883 57.851 288.919 51.1111 286.515 45.4945C284.031 39.8779 282.028 34.9032 282.028 34.502C282.028 34.1008 281.708 33.6194 281.307 33.2984C280.907 33.0577 279.545 34.9834 278.423 37.4708Z" fill="#F0B022" fill-opacity="0.45"/>
<path d="M266.244 84.7304C264.882 89.2237 264.962 97.3277 266.325 100.698C267.927 104.389 271.052 105.913 273.135 103.987C275.058 102.222 276.099 98.0498 274.898 96.8463C274.337 96.2846 273.936 96.4451 273.535 97.3277C272.814 99.2534 270.25 99.0127 269.049 96.8463C268.488 95.8834 267.847 92.032 267.606 88.2609L267.206 81.4407L266.244 84.7304Z" fill="#F0B022" fill-opacity="0.45"/>
<path d="M132.121 87.1376C131.56 88.4214 131.159 92.5937 131.079 96.4451C130.999 102.302 131.239 103.747 132.682 105.672C133.643 106.876 134.845 107.919 135.486 107.919C136.688 107.919 140.213 103.025 140.213 101.42C140.213 100.056 138.05 99.8953 137.649 101.179C137.168 102.623 134.204 101.259 133.002 99.1731C132.201 97.6486 132.201 95.9636 132.842 91.3901C133.803 84.9712 133.563 83.5269 132.121 87.1376Z" fill="#F0B022" fill-opacity="0.45"/>
<path d="M45.9899 114.097C43.7465 116.424 41.3428 119.232 40.6217 120.356C31.8884 133.354 30.8469 136.002 30.8469 145.63C30.8469 156.382 33.8114 161.277 38.6187 158.789C42.7049 156.703 51.2779 145.069 51.2779 141.619C51.2779 139.773 50.5568 140.094 46.7911 143.624C44.8682 145.39 42.9452 146.834 42.4645 146.834C40.782 146.834 38.9392 141.538 38.9392 136.403C38.9392 132.07 39.4199 130.225 41.9037 125.17C43.5061 121.88 46.07 117.066 47.5923 114.498C49.1947 112.011 50.3164 109.925 50.2363 109.925C50.0761 109.925 48.2333 111.851 45.9899 114.097Z" fill="#F0B022" fill-opacity="0.45"/>
<path d="M76.2758 140.977C74.9138 143.464 72.1095 155.981 72.1095 159.511C72.1095 163.604 74.5933 168.017 76.9969 168.338C79.3204 168.578 82.5253 165.93 82.5253 163.684C82.5253 162.48 81.9645 162.079 80.1217 162.079C75.5547 162.079 74.2728 156.382 76.5162 146.433C77.8783 140.656 77.718 138.168 76.2758 140.977Z" fill="#F0B022" fill-opacity="0.45"/>
<path d="M203.509 170.745C200.464 173.392 200.144 174.115 200.625 176.04C200.945 177.324 202.227 179.25 203.589 180.453L205.913 182.459L202.548 185.348C197.34 189.841 199.343 190.643 206.153 186.792C213.845 182.379 217.931 179.089 217.931 177.404C217.931 176.04 217.611 176.04 213.204 177.244C208.076 178.528 204.791 177.886 203.749 175.238C203.028 173.312 206.474 170.664 208.957 171.306C210.56 171.708 210.8 171.547 210.56 169.942C210.159 166.974 207.435 167.294 203.509 170.745Z" fill="#F0B022" fill-opacity="0.45"/>
<path d="M282.669 196.34C279.064 201.796 278.663 202.84 279.625 204.605C280.586 206.37 289.72 214.233 290.762 214.233C291.162 214.233 292.845 212.388 294.527 210.221C296.21 207.975 298.053 206.209 298.614 206.209C299.255 206.209 301.899 207.975 304.543 210.221C307.187 212.388 309.991 214.233 310.872 214.233C312.314 214.233 314.958 211.264 317.122 207.092C318.243 204.845 318.243 204.765 311.513 197.945C309.029 195.458 306.385 193.372 305.744 193.372C305.103 193.372 303.18 195.377 301.498 197.785C299.815 200.192 298.213 202.198 297.973 202.198C297.732 202.198 294.928 200.192 291.723 197.785C288.518 195.377 285.634 193.372 285.233 193.372C284.913 193.372 283.791 194.736 282.669 196.34Z" fill="#F0B022" fill-opacity="0.45"/>
<path d="M276.019 320.949C275.298 322.313 274.337 326.405 273.856 330.015C272.734 339.002 272.654 339.162 270.972 336.916C270.17 335.873 269.049 334.027 268.488 332.824C266.725 329.374 260.716 323.436 258.312 322.874C255.829 322.232 254.787 323.436 254.787 327.047C254.787 330.256 257.351 333.546 260.396 334.188C264.081 334.99 266.965 337.879 269.529 343.335C270.891 346.063 272.173 348.229 272.494 348.229C273.776 348.229 274.898 342.532 275.378 333.947C275.939 323.757 276.42 323.035 280.827 325.442C283.07 326.645 283.711 326.726 284.753 325.843C286.435 324.399 286.355 323.917 283.951 321.029C281.147 317.659 277.782 317.579 276.019 320.949Z" fill="#F0B022" fill-opacity="0.45"/>
<path d="M127.554 344.619C126.592 347.989 126.272 356.173 127.073 359.222C127.714 361.468 131.72 363.234 133.323 361.95C134.765 360.746 137.248 355.451 136.688 354.889C136.447 354.568 135.486 355.049 134.604 355.852C133.002 357.296 132.922 357.296 131.239 355.611C129.877 354.247 129.397 352.562 128.996 347.668L128.515 341.409L127.554 344.619Z" fill="#F0B022" fill-opacity="0.45"/>
</svg>
