<svg width="322" height="305" viewBox="0 0 322 305" fill="none" xmlns="http://www.w3.org/2000/svg">
<path d="M279.923 0.145195C279.923 0.145195 238.765 5.90342 238.765 62.841C238.765 119.779 238.765 213.414 238.765 213.414L279.923 236.533L321.081 259.652C321.081 259.652 321.081 166.016 321.081 109.079C321.081 52.1411 279.923 0.145195 279.923 0.145195Z" fill="white"/>
<path d="M283.672 234.126L242.514 211.007C242.514 211.007 242.514 117.371 242.514 60.4337C242.514 29.4081 254.709 13.5945 265.833 5.60172C253.926 12.6061 238.765 28.3338 238.765 62.8831C238.765 119.864 238.765 213.456 238.765 213.456L279.923 236.575L321.081 259.694C321.081 259.694 321.081 258.061 321.081 255.139L283.672 234.126Z" fill="#F0B022"/>
<path d="M279.758 236.447L279.923 236.533L282.642 238.08V3.79779C280.953 1.43435 279.923 0.145195 279.923 0.145195C279.923 0.145195 279.881 0.145198 279.758 0.188169V236.447Z" fill="#F0B022"/>
<path d="M233.615 219.515C233.615 219.515 141.081 238.337 68.9406 252.346C-3.19953 266.354 0.17883 296.521 0.17883 296.521C0.17883 296.521 76.6449 312.463 148.785 298.454C220.925 284.446 314.942 265.28 314.942 265.28L233.615 219.515Z" fill="#F0B022"/>
<path d="M131.152 232.106C133.335 230.344 136.59 229.356 140.339 229.055C144.088 228.754 150.351 230.086 152.946 228.711C155.542 227.379 157.602 228.195 157.602 228.195L189.984 259.092L181.291 261.714C177.831 259.135 169.344 253.549 164.111 256.686C160.568 258.834 161.969 263.261 164.029 266.913L154.512 269.792L122.376 233.696C124.354 231.848 128.968 233.868 131.152 232.106Z" fill="#155F69"/>
<path d="M137.538 250.67L154.635 231.763C154.635 231.763 156.778 230.474 159.291 231.247C161.804 232.021 168.19 229.271 171.939 228.712C175.688 228.153 178.902 228.411 181.003 229.7C183.104 230.989 187.883 227.895 189.696 229.356L176.512 246.287L137.538 250.67Z" fill="#1CA4AE"/>
<path d="M137.538 250.67L143.759 257.674C139.762 259.737 135.642 263.303 133.459 265.323L124.848 264.636L137.538 250.67Z" fill="#155F69"/>
<path d="M157.272 229.485L125.178 235.157L138.403 249.724L154.594 231.805C154.594 231.805 156.448 230.688 158.714 231.161L157.272 229.485Z" fill="#F3D5C4"/>
<path d="M154.594 231.762C154.594 231.762 156.077 230.86 158.014 231.032L156.984 230.086L126.29 235.415L138.815 249.209L154.594 231.762Z" fill="#DEDEDE"/>
<path d="M154.594 231.762C154.594 231.762 155.871 230.989 157.643 230.989C157.89 230.989 158.178 230.989 158.467 230.989L157.437 230.043L126.743 235.372L139.062 248.951L154.594 231.762Z" fill="white"/>
<path d="M134.036 252.603C133.912 251.873 133.747 251.185 133.459 250.584C132.346 248.177 129.257 247.017 126.867 246.716C117.844 245.556 103.342 244.911 103.342 244.911L102.477 255.139L105.279 264.077C105.279 264.077 116.238 264.807 119.781 264.163C122.376 263.69 124.931 263.217 127.485 262.616C128.886 262.272 130.369 261.971 131.729 261.37C133.253 260.682 133.788 258.705 133.953 257.115C134.159 255.783 134.242 254.107 134.036 252.603Z" fill="#D9D9D9"/>
<path d="M90.3643 289.215C90.3643 289.215 88.6751 292.696 89.0047 294.458C89.2931 296.22 107.709 290.977 107.709 290.977L103.383 285.649L90.3643 289.215Z" fill="#C26657"/>
<path d="M95.5966 192.787C95.5966 192.787 98.2746 191.626 99.8814 186.685L103.26 188.103L110.058 197.771C110.058 197.771 108.204 202.412 107.998 206.924L95.5966 192.787Z" fill="#9F4745"/>
<path d="M110.882 252.56C104.125 251.529 100.664 232.063 100.664 232.063L104.413 220.246L108.451 217.238L114.837 215.605L116.444 215.863C116.444 215.863 123.283 241.989 123.777 245.685L130.699 259.694L119.369 263.905L110.882 252.56Z" fill="#F0F0F0"/>
<path d="M128.185 184.407C128.185 184.407 127.279 189.779 126.537 190.251C125.837 190.681 124.56 190.509 124.354 191.712C124.189 192.916 124.56 197.514 123.983 197.643C123.406 197.771 121.882 197.299 121.882 197.299C121.882 197.299 118.545 203.53 117.185 204.088C115.784 204.647 110.305 201.94 105.237 191.841C105.237 191.841 109.192 186.728 114.631 183.118C120.069 179.508 126.661 180.927 126.661 180.927L128.68 181.27L128.185 184.407Z" fill="#C26657"/>
<path d="M121.017 198.803L121.882 197.256C117.844 194.849 115.537 196.826 114.425 198.502C113.312 200.178 111.788 198.545 111.088 197.385C110.181 195.881 110.14 194.377 110.305 192.701C110.346 192.4 110.84 188.575 111.129 188.533L107.956 189.736L107.133 190.122L103.96 190.724C103.96 190.724 108.451 200.822 113.148 203.186C117.103 205.163 117.68 203.659 117.68 203.659C118.504 202.971 119.08 201.94 119.08 201.94C119.08 201.94 116.361 201.424 117.35 199.018C118.38 196.654 121.017 198.803 121.017 198.803Z" fill="#3A2034"/>
<path d="M128.514 176.329C126.825 172.418 105.196 168.551 101.405 177.747C99.3452 182.774 98.6449 185.954 99.1392 188.447L102.847 191.498C102.847 191.498 110.551 189.994 112.859 188.017L112.488 189.521C113.353 188.576 112.817 189.736 112.817 189.736C112.817 189.736 113.971 190.165 113.353 192.873L117.885 192.916C117.885 192.916 117.72 189.048 121.717 187.544C125.754 186.04 127.69 186.814 127.69 186.814C127.69 186.814 130.204 180.239 128.514 176.329Z" fill="#3A2034"/>
<path d="M129.504 176.887C128.803 174.867 126.867 170.441 122.541 167.691C113.889 162.234 101.447 166.875 99.799 178.735C99.5518 180.368 99.0986 182.087 98.975 184.063C98.9338 184.708 99.4282 185.224 99.9638 185.095C103.672 184.407 116.485 181.915 128.845 178.219C129.421 178.09 129.71 177.446 129.504 176.887Z" fill="white"/>
<path d="M114.96 190.81C114.96 190.81 114.466 186.943 111.912 187.931C109.357 188.919 110.181 195.666 112.612 194.806C115.002 193.99 114.96 190.81 114.96 190.81Z" fill="#C26657"/>
<path d="M151.422 265.839C151.092 261.542 145.283 260.166 145.283 260.166L120.399 257.072C120.399 257.072 69.847 270.78 69.7646 270.78C69.3938 270.866 69.5586 271.941 69.9294 273.273C70.3826 277.57 71.9894 286.207 77.7573 289.731C85.544 294.458 95.4318 293.942 103.96 289.258C105.031 291.837 105.649 292.137 105.649 292.137C109.234 291.493 144.954 278.945 147.755 277.183C150.557 275.421 151.751 270.136 151.422 265.839Z" fill="white"/>
<path d="M113.477 260.381C113.477 260.381 106.556 261.584 99.1398 262.831C85.2968 266.569 69.8058 270.78 69.7646 270.78C69.3938 270.866 69.5586 271.941 69.9294 273.273C69.9706 273.488 69.9706 273.746 70.0118 274.003C72.2778 278.043 78.2517 285.176 92.0535 283.758C111.088 281.824 113.477 260.381 113.477 260.381Z" fill="#F0F0F0"/>
<path d="M91.6006 193.045C91.6006 193.045 95.3498 191.24 96.8741 191.798C98.3985 192.357 109.069 202.756 109.605 204.991C110.14 207.225 110.099 209.932 110.099 209.932C110.099 209.932 115.249 213.843 116.403 215.82C116.403 215.82 101.694 218.57 103.672 239.411C103.672 239.411 109.44 248.435 110.964 251.873C112.489 255.311 116.032 259.694 120.399 257.072C120.399 257.072 116.773 283.844 92.4246 282.125C92.4246 282.125 75.0797 282.168 69.8062 270.78C69.8062 270.78 70.7125 262.874 72.9785 256.557C75.2445 250.24 74.6677 249.381 71.6601 235.372C68.6938 221.363 73.9673 204.733 77.222 198.588C80.4768 192.443 82.578 191.24 91.6006 193.045Z" fill="white"/>
<path d="M103.96 289.258L142.688 273.488C142.688 273.488 114.425 282.211 103.96 289.258Z" fill="#F0F0F0"/>
<path d="M89.6643 251.916C76.8101 248.693 72.6077 239.712 72.6077 239.712C74.7501 249.638 74.9973 250.97 72.9785 256.557C70.7125 262.874 69.8062 270.78 69.8062 270.78C69.8062 270.78 71.8249 260.381 74.0085 256.428C76.1921 252.474 89.6643 251.916 89.6643 251.916Z" fill="#F0F0F0"/>
<path d="M109.646 204.991C109.11 202.756 98.4394 192.357 96.915 191.798C95.3906 191.24 91.6415 193.045 91.6415 193.045C91.6415 193.045 101.2 205.936 110.14 209.932C110.099 209.932 110.181 207.182 109.646 204.991Z" fill="#F0F0F0"/>
<path d="M242.555 56.996C242.514 58.0703 242.514 59.1445 242.514 60.2188L320.133 94.1236C320.01 92.9633 319.845 91.8031 319.68 90.6858L242.555 56.996Z" fill="#F0B022"/>
<path d="M242.514 118.403L321.081 152.737C321.081 151.663 321.081 150.588 321.081 149.471L242.514 115.137C242.514 116.211 242.514 117.328 242.514 118.403Z" fill="#F0B022"/>
<path d="M242.514 177.403L321.081 211.737C321.081 210.663 321.081 209.589 321.081 208.471L242.514 174.137C242.514 175.297 242.514 176.372 242.514 177.403Z" fill="#F0B022"/>
<path d="M321.081 209.073C321.081 207.999 321.081 206.924 321.081 205.807L280.293 187.974V132.197L321.081 150.03C321.081 148.956 321.081 147.881 321.081 146.764L280.293 128.931V74.0128L319.804 91.2874C319.639 90.1272 319.474 88.967 319.268 87.8067L280.293 70.7899V0.574027C280.087 0.273224 279.923 0.101341 279.923 0.101341C279.923 0.101341 278.975 0.230251 277.41 0.659969V69.5007L239.218 52.8277C239.135 53.859 239.053 54.8903 238.97 55.9646L277.368 72.7666V127.685L238.723 110.797C238.723 111.871 238.723 112.945 238.723 114.062L277.368 130.95V186.728L238.723 169.84C238.723 170.914 238.723 172.031 238.723 173.106L277.368 189.994V235.114L279.881 236.532L280.252 236.747V191.24L321.081 209.073Z" fill="#1C1D4E"/>
</svg>
