<svg width="205" height="99" viewBox="0 0 205 99" fill="none" xmlns="http://www.w3.org/2000/svg">
<path d="M15.4356 15.64C13.4623 15.64 11.7823 14.8933 10.3956 13.4C8.95562 11.9067 8.23562 10.0933 8.23562 7.96C8.23562 5.77333 8.95562 3.93333 10.3956 2.44C11.7823 0.89333 13.4623 0.119997 15.4356 0.119997C17.4623 0.119997 19.169 0.89333 20.5556 2.44C21.9956 3.93333 22.7156 5.77333 22.7156 7.96C22.7156 10.0933 21.9956 11.9067 20.5556 13.4C19.169 14.8933 17.4623 15.64 15.4356 15.64ZM15.5156 11.88C16.4756 11.88 17.3023 11.5067 17.9956 10.76C18.689 9.96 19.0356 9.02667 19.0356 7.96C19.0356 6.84 18.689 5.90667 17.9956 5.16C17.3023 4.36 16.4756 3.96 15.5156 3.96C14.5023 3.96 13.649 4.36 12.9556 5.16C12.2623 5.90667 11.9156 6.84 11.9156 7.96C11.9156 9.02667 12.2623 9.96 12.9556 10.76C13.649 11.5067 14.5023 11.88 15.5156 11.88ZM30.36 79H19.32V79.48C19.32 85.7733 18.2267 90.5733 16.04 93.88C13.8533 97.24 10.5467 98.92 6.12 98.92C4.89333 98.92 3.56 98.84 2.12 98.68L0.2 98.52V91.8C1.96 91.96 3.4 92.04 4.52 92.04C6.92 92.04 8.73333 91.08 9.96 89.16C11.1867 87.24 11.8 84.5467 11.8 81.08V39.08H19.32V72.2H30.36V79ZM61.7994 72.2V79H30.3594V72.2H42.2794V39H49.8794V72.2H61.7994ZM37.2394 85.4H44.0394V93.08H37.2394V85.4ZM47.9594 85.4H54.6794V93.08H47.9594V85.4ZM130.486 72.2V79H107.766C104.459 79 101.499 77.9333 98.8856 75.8C96.9123 77.9333 94.3256 79 91.1256 79H61.7656V72.2H74.4856V43H82.0856V72.2H88.6456C90.9923 72.2 92.699 71.2133 93.7656 69.24C94.8856 67.2667 95.4456 64.7867 95.4456 61.8V43H103.046V61.72C103.046 64.76 102.699 67.48 102.006 69.88C102.752 70.4667 103.659 71 104.726 71.48C105.792 71.96 106.859 72.2 107.926 72.2H115.606V56.76C115.606 53.0267 115.179 47.1867 114.326 39.24L120.726 39C121.366 42.1467 121.926 45.4533 122.406 48.92C122.939 52.3333 123.206 54.9467 123.206 56.76V72.2H130.486ZM180.196 72.2V79H130.516V72.2H140.916C139.689 69.16 139.076 64.8933 139.076 59.4C139.076 54.12 139.716 50.04 140.996 47.16C142.276 44.2267 144.302 42.1467 147.076 40.92C149.902 39.6933 153.822 39.08 158.836 39.08C162.996 39.08 166.756 39.2667 170.116 39.64L172.916 39.96V72.2H180.196ZM146.676 59.96C146.676 63.4267 146.916 66.0667 147.396 67.88C147.876 69.64 148.489 71.08 149.236 72.2H165.316V46.04C162.009 45.7733 159.689 45.64 158.356 45.64C155.156 45.64 152.729 46.0933 151.076 47C149.422 47.9067 148.276 49.3733 147.636 51.4C146.996 53.4267 146.676 56.28 146.676 59.96ZM153.076 23.72H160.356V31.56H153.076V23.72ZM199.723 39V79H180.203V72.2H192.123V39H199.723ZM187.243 23.8H194.043V31.56H187.243V23.8ZM197.963 23.8H204.683V31.56H197.963V23.8Z" fill="#FCF7F7"/>
</svg>
